<?xml version="1.0" standalone="no"?>
<!DOCTYPE svg PUBLIC "-//W3C//DTD SVG 20010904//EN"
 "http://www.w3.org/TR/2001/REC-SVG-20010904/DTD/svg10.dtd">
<svg version="1.0" xmlns="http://www.w3.org/2000/svg"
 width="101.000000pt" height="101.000000pt" viewBox="0 0 101.000000 101.000000"
 preserveAspectRatio="xMidYMid meet">

<g transform="translate(0.000000,101.000000) scale(0.100000,-0.100000)"
fill="#000000" stroke="none">
<path d="M441 855 c-7 -16 -20 -61 -28 -100 -20 -93 -10 -127 72 -251 71 -106
95 -168 96 -253 0 -47 2 -52 10 -31 19 47 59 88 96 100 53 17 93 42 93 57 0 7
-9 22 -20 33 -11 11 -20 31 -20 44 0 14 -4 28 -10 31 -5 3 -10 15 -10 25 0 10
-8 23 -17 28 -15 9 -15 12 0 43 9 19 13 37 9 40 -4 3 -33 11 -65 18 -59 13
-124 54 -159 101 -10 14 -22 52 -26 85 -9 60 -9 60 -21 30z m147 -241 c26 -9
52 -18 58 -19 7 -2 9 -15 7 -29 -3 -14 -1 -32 4 -39 6 -6 13 -24 17 -39 3 -16
11 -28 16 -28 6 0 10 -8 10 -18 0 -10 7 -27 15 -39 17 -25 18 -25 -53 -51 -47
-18 -52 -19 -52 -4 0 27 -49 123 -89 177 -53 70 -71 108 -71 150 l0 37 46 -41
c25 -22 67 -47 92 -57z"/>
<path d="M352 779 c-43 -64 -59 -113 -71 -204 -9 -72 -32 -127 -66 -155 -23
-19 -18 -30 20 -46 27 -11 35 -20 35 -39 0 -14 5 -25 10 -25 6 0 10 -11 10
-24 0 -13 5 -26 11 -28 6 -2 14 -22 18 -43 6 -36 9 -40 36 -39 17 0 52 7 78
15 46 13 50 12 63 -6 8 -10 14 -29 14 -43 0 -37 17 -16 26 31 19 109 0 180
-81 297 -78 112 -95 151 -95 213 0 30 7 74 15 97 8 24 14 44 12 46 -1 2 -18
-19 -35 -47z m71 -331 c37 -48 77 -138 77 -174 0 -29 -3 -32 -42 -37 -24 -4
-55 -9 -70 -13 -23 -5 -28 -3 -28 14 0 11 -7 25 -15 32 -8 7 -12 16 -9 21 3 5
-1 19 -8 31 -6 13 -13 30 -14 38 -2 8 -15 24 -29 36 -23 18 -24 22 -11 33 13
11 24 38 53 140 2 9 17 -5 37 -37 19 -28 45 -66 59 -84z"/>
</g>
</svg>
