<?xml version="1.0" standalone="no"?>
<!DOCTYPE svg PUBLIC "-//W3C//DTD SVG 20010904//EN"
 "http://www.w3.org/TR/2001/REC-SVG-20010904/DTD/svg10.dtd">
<svg version="1.0" xmlns="http://www.w3.org/2000/svg"
 width="101.000000pt" height="101.000000pt" viewBox="0 0 101.000000 101.000000"
 preserveAspectRatio="xMidYMid meet">

<g transform="translate(0.000000,101.000000) scale(0.100000,-0.100000)"
fill="#000000" stroke="none">
<path d="M413 735 l6 -55 -45 0 c-37 0 -51 -6 -76 -30 -27 -27 -30 -36 -24
-69 5 -33 3 -39 -19 -49 -37 -17 -58 -56 -51 -96 11 -56 37 -71 130 -74 l82
-4 0 -66 c-1 -53 2 -67 14 -67 11 0 16 15 20 57 3 31 9 60 13 65 5 4 63 10
130 13 100 4 122 8 122 20 0 13 -32 15 -221 18 -207 2 -222 4 -239 22 -15 16
-17 26 -9 48 l9 27 235 5 c213 5 235 7 238 23 3 16 -11 17 -191 17 -182 0
-195 1 -212 20 -15 16 -17 26 -9 48 l9 27 157 5 c86 3 159 8 163 12 18 17 -12
28 -78 28 -92 0 -117 15 -117 71 0 33 -3 39 -21 39 -20 0 -21 -4 -16 -55z"/>
<path d="M480 770 c0 -42 34 -60 113 -60 78 0 97 -9 97 -46 0 -48 -20 -54
-185 -54 -102 0 -156 -4 -161 -11 -14 -23 26 -29 207 -29 130 0 189 -4 197
-12 16 -16 15 -65 0 -75 -7 -4 -116 -10 -243 -13 -196 -4 -230 -7 -230 -20 0
-13 33 -15 229 -18 149 -1 234 -6 243 -13 20 -17 16 -67 -6 -79 -11 -5 -60
-10 -110 -10 -79 0 -93 -3 -116 -22 -28 -25 -39 -78 -18 -85 7 -3 18 8 24 23
5 16 16 32 22 36 7 4 54 8 105 8 90 0 95 1 123 29 32 33 39 82 14 115 -12 16
-12 21 0 40 24 33 19 83 -11 111 -15 14 -32 25 -39 25 -9 0 -11 13 -8 44 5 38
2 48 -20 70 -24 23 -34 26 -102 26 -68 0 -77 2 -82 20 -3 11 -14 20 -24 20
-12 0 -19 -7 -19 -20z"/>
</g>
</svg>
