<?xml version="1.0" standalone="no"?>
<!DOCTYPE svg PUBLIC "-//W3C//DTD SVG 20010904//EN"
 "http://www.w3.org/TR/2001/REC-SVG-20010904/DTD/svg10.dtd">
<svg version="1.0" xmlns="http://www.w3.org/2000/svg"
 width="101.000000pt" height="101.000000pt" viewBox="0 0 101.000000 101.000000"
 preserveAspectRatio="xMidYMid meet">

<g transform="translate(0.000000,101.000000) scale(0.100000,-0.100000)"
fill="#000000" stroke="none">
<path d="M337 610 c-32 -28 -40 -30 -116 -30 -65 0 -81 -3 -81 -15 0 -12 18
-15 103 -15 101 0 104 1 115 25 9 19 19 25 42 25 l31 0 -3 -92 c-3 -108 -17
-122 -66 -68 -29 31 -29 31 -123 28 -80 -3 -94 -6 -97 -20 -3 -16 6 -18 88
-18 72 0 92 -3 97 -15 7 -19 55 -45 81 -45 11 0 30 8 42 18 21 17 23 27 23
122 0 88 -3 105 -18 117 -32 23 -81 16 -118 -17z"/>
<path d="M535 616 c-22 -22 -24 -33 -24 -105 0 -71 3 -85 24 -108 33 -39 97
-39 130 -1 22 25 30 27 112 30 70 2 88 6 88 18 0 12 -19 16 -99 18 l-100 3
-24 -31 c-25 -33 -52 -38 -75 -16 -17 17 -21 144 -5 164 18 22 66 14 84 -13
16 -24 21 -25 113 -25 102 0 118 4 100 27 -8 9 -37 13 -92 13 -72 0 -82 2
-103 25 -32 34 -95 35 -129 1z"/>
</g>
</svg>
