<?xml version="1.0" standalone="no"?>
<!DOCTYPE svg PUBLIC "-//W3C//DTD SVG 20010904//EN"
 "http://www.w3.org/TR/2001/REC-SVG-20010904/DTD/svg10.dtd">
<svg version="1.0" xmlns="http://www.w3.org/2000/svg"
 width="101.000000pt" height="101.000000pt" viewBox="0 0 101.000000 101.000000"
 preserveAspectRatio="xMidYMid meet">

<g transform="translate(0.000000,101.000000) scale(0.100000,-0.100000)"
fill="#000000" stroke="none">
<path d="M705 805 c-75 -74 25 -190 109 -124 31 25 35 59 6 59 -11 0 -20 -4
-20 -10 0 -14 -36 -31 -54 -24 -21 8 -30 42 -16 59 17 20 57 19 68 -2 11 -19
42 -11 42 11 0 22 -49 56 -82 56 -17 0 -39 -10 -53 -25z"/>
<path d="M270 750 c0 -11 7 -20 15 -20 8 0 15 9 15 20 0 11 -7 20 -15 20 -8 0
-15 -9 -15 -20z"/>
<path d="M332 753 c2 -10 10 -18 18 -18 8 0 16 8 18 18 2 12 -3 17 -18 17 -15
0 -20 -5 -18 -17z"/>
<path d="M400 750 c0 -18 7 -20 60 -20 53 0 60 2 60 20 0 18 -7 20 -60 20 -53
0 -60 -2 -60 -20z"/>
<path d="M427 612 c-54 -55 -72 -92 -44 -92 7 0 37 25 67 55 51 51 57 55 102
55 l48 0 -50 -64 c-36 -46 -50 -72 -50 -95 0 -27 -18 -52 -105 -148 -80 -88
-102 -119 -94 -129 6 -7 16 -11 23 -8 7 3 57 54 111 114 64 72 105 110 118
110 11 0 51 -10 89 -22 l68 -22 -50 -51 c-41 -42 -51 -58 -53 -90 -2 -34 1
-40 18 -40 15 0 21 8 23 29 3 20 23 48 63 88 32 32 59 64 59 72 0 12 -88 56
-114 56 -6 0 -17 4 -25 9 -11 7 -7 19 22 59 71 95 33 116 -40 22 -41 -53 -73
-76 -73 -52 0 10 108 156 118 159 12 4 27 -10 59 -58 42 -60 57 -72 84 -64 29
9 119 93 119 111 0 29 -23 23 -72 -20 -29 -25 -56 -46 -59 -46 -4 0 -21 23
-39 50 -18 28 -41 55 -51 60 -10 6 -62 10 -116 10 l-99 0 -57 -58z"/>
<path d="M120 410 c0 -11 7 -20 15 -20 8 0 15 9 15 20 0 11 -7 20 -15 20 -8 0
-15 -9 -15 -20z"/>
<path d="M180 410 c0 -11 7 -20 15 -20 8 0 15 9 15 20 0 11 -7 20 -15 20 -8 0
-15 -9 -15 -20z"/>
<path d="M240 410 c0 -18 7 -20 65 -20 58 0 65 2 65 20 0 18 -7 20 -65 20 -58
0 -65 -2 -65 -20z"/>
</g>
</svg>
