<?xml version="1.0" standalone="no"?>
<!DOCTYPE svg PUBLIC "-//W3C//DTD SVG 20010904//EN"
 "http://www.w3.org/TR/2001/REC-SVG-20010904/DTD/svg10.dtd">
<svg version="1.0" xmlns="http://www.w3.org/2000/svg"
 width="101.000000pt" height="101.000000pt" viewBox="0 0 101.000000 101.000000"
 preserveAspectRatio="xMidYMid meet">

<g transform="translate(0.000000,101.000000) scale(0.100000,-0.100000)"
fill="#000000" stroke="none">
<path d="M370 851 c-133 -43 -210 -168 -210 -341 0 -146 57 -265 153 -320 72
-41 139 -38 173 9 10 13 16 11 45 -13 29 -25 39 -28 82 -23 129 12 230 164
231 347 1 146 -55 260 -154 314 -65 35 -139 41 -167 14 -15 -16 -18 -16 -34
-2 -21 19 -84 27 -119 15z m84 -44 c14 -10 20 -32 24 -86 5 -69 15 -93 32 -75
5 5 13 42 19 82 5 41 12 76 15 79 19 20 133 -8 151 -37 15 -24 -7 -50 -45 -56
-41 -7 -63 -25 -74 -61 -6 -19 -3 -23 13 -23 11 0 25 8 30 19 6 10 27 22 46
25 20 4 46 17 57 28 20 20 21 21 35 2 7 -10 20 -41 28 -68 14 -45 13 -51 -2
-68 -13 -14 -28 -17 -74 -16 -61 3 -92 -13 -102 -53 -8 -31 22 -37 43 -9 15
20 23 22 60 17 24 -3 54 -1 68 4 l25 10 -5 -66 c-10 -118 -91 -235 -174 -251
-68 -13 -88 10 -99 120 -6 54 -11 66 -24 64 -11 -2 -18 -20 -23 -63 -14 -108
-35 -134 -98 -120 -85 19 -164 131 -176 250 l-6 60 63 -2 c35 -1 69 -2 76 -3
6 0 15 -9 18 -20 8 -24 45 -27 45 -4 0 8 -14 29 -30 46 -28 28 -34 29 -80 23
-85 -12 -101 25 -55 124 l25 53 20 -25 c13 -16 35 -28 60 -32 26 -4 41 -13 45
-26 9 -26 45 -25 45 1 0 29 -33 58 -75 66 -30 5 -55 27 -55 48 0 10 51 39 83
46 47 12 51 11 71 -3z"/>
<path d="M482 508 c2 -50 6 -63 21 -66 15 -3 17 5 17 62 0 60 -2 66 -20 66
-19 0 -21 -5 -18 -62z"/>
<path d="M280 411 c0 -10 9 -21 20 -24 12 -3 20 -14 20 -26 0 -33 20 -68 47
-80 31 -14 33 -14 33 7 0 10 -9 25 -20 35 -11 9 -20 28 -20 42 0 14 -9 34 -20
45 -26 26 -60 26 -60 1z"/>
<path d="M651 404 c-12 -15 -21 -37 -21 -50 0 -13 -9 -28 -20 -34 -11 -6 -20
-20 -20 -31 0 -16 4 -19 23 -14 30 9 57 42 57 71 0 14 10 30 25 40 32 21 32
44 1 44 -15 0 -33 -11 -45 -26z"/>
</g>
</svg>
