<?xml version="1.0" standalone="no"?>
<!DOCTYPE svg PUBLIC "-//W3C//DTD SVG 20010904//EN"
 "http://www.w3.org/TR/2001/REC-SVG-20010904/DTD/svg10.dtd">
<svg version="1.0" xmlns="http://www.w3.org/2000/svg"
 width="100.000000pt" height="100.000000pt" viewBox="0 0 100.000000 100.000000"
 preserveAspectRatio="xMidYMid meet">

<g transform="translate(0.000000,100.000000) scale(0.100000,-0.100000)"
fill="#000000" stroke="none">
<path d="M464 819 c-44 -48 -98 -69 -178 -69 l-68 0 4 -167 c3 -157 5 -172 30
-225 36 -78 101 -145 173 -179 33 -16 67 -29 75 -29 8 0 42 13 75 29 72 34
137 101 173 179 25 53 27 68 30 225 l4 167 -68 0 c-80 0 -134 21 -178 69 -17
17 -33 31 -36 31 -3 0 -19 -14 -36 -31z m61 -69 c12 -20 85 -50 137 -58 l53
-7 0 -130 c0 -122 -2 -133 -28 -187 -31 -63 -77 -109 -143 -141 l-44 -21 -44
21 c-66 32 -112 78 -143 141 -26 54 -28 65 -28 187 l0 130 53 7 c52 8 125 38
137 58 3 5 15 10 25 10 10 0 22 -5 25 -10z"/>
</g>
</svg>
