<?xml version="1.0" standalone="no"?>
<!DOCTYPE svg PUBLIC "-//W3C//DTD SVG 20010904//EN"
 "http://www.w3.org/TR/2001/REC-SVG-20010904/DTD/svg10.dtd">
<svg version="1.0" xmlns="http://www.w3.org/2000/svg"
 width="101.000000pt" height="101.000000pt" viewBox="0 0 101.000000 101.000000"
 preserveAspectRatio="xMidYMid meet">

<g transform="translate(0.000000,101.000000) scale(0.100000,-0.100000)"
fill="#000000" stroke="none">
<path d="M459 685 c-107 -96 -195 -182 -197 -190 -2 -9 11 -18 40 -25 95 -25
123 -34 131 -41 5 -4 -19 -61 -53 -128 -56 -109 -69 -160 -41 -149 23 8 396
353 399 369 2 13 -15 21 -87 39 -50 12 -91 24 -91 26 0 2 27 58 60 124 62 123
70 150 46 150 -7 0 -101 -79 -207 -175z m86 -25 c-50 -100 -49 -104 38 -125
39 -10 76 -21 80 -25 4 -4 -47 -57 -115 -118 -68 -61 -124 -109 -125 -108 -2
1 16 39 39 85 49 95 51 91 -59 118 -40 9 -73 19 -72 22 1 7 238 221 245 221 2
0 -12 -31 -31 -70z"/>
</g>
</svg>
