<?xml version="1.0" standalone="no"?>
<!DOCTYPE svg PUBLIC "-//W3C//DTD SVG 20010904//EN"
 "http://www.w3.org/TR/2001/REC-SVG-20010904/DTD/svg10.dtd">
<svg version="1.0" xmlns="http://www.w3.org/2000/svg"
 width="100.000000pt" height="100.000000pt" viewBox="0 0 100.000000 100.000000"
 preserveAspectRatio="xMidYMid meet">

<g transform="translate(0.000000,100.000000) scale(0.100000,-0.100000)"
fill="#000000" stroke="none">
<path d="M624 865 c-8 -21 14 -45 42 -45 43 0 34 -18 -30 -58 -56 -35 -66 -39
-77 -26 -44 54 -179 77 -244 42 -39 -21 -82 -64 -103 -103 -24 -45 -21 -140 6
-193 25 -47 87 -97 133 -107 27 -6 29 -10 29 -55 l0 -49 -52 -3 c-45 -3 -53
-6 -53 -23 0 -17 8 -20 53 -23 l52 -3 0 -45 c0 -32 5 -46 16 -51 23 -8 44 23
44 63 0 32 1 33 48 36 40 3 47 6 50 25 3 21 0 23 -47 23 l-51 0 0 49 c0 48 1
50 36 61 49 16 103 66 125 115 19 41 24 124 10 160 -8 21 0 29 90 83 l37 22
-8 -36 c-10 -44 -4 -64 21 -64 13 0 21 11 29 40 5 22 15 58 21 81 14 54 4 63
-83 83 -86 20 -87 20 -94 1z m-144 -140 c62 -32 96 -109 80 -179 -12 -52 -63
-102 -121 -117 -42 -11 -50 -10 -95 12 -69 34 -89 67 -89 142 0 72 23 114 77
140 41 21 110 22 148 2z"/>
</g>
</svg>
